<?xml version="1.0" ?><svg data-name="Layer 2" id="b877c6dd-c574-4b8d-a1cd-4f83725cf5ab" viewBox="0 0 38 38" xmlns="http://www.w3.org/2000/svg"><path d="M29.429,36.744H8.571a5.259,5.259,0,0,1-5.252-5.253V6.508A5.259,5.259,0,0,1,8.571,1.256h13.32A5.239,5.239,0,0,1,25.615,2.8l7.521,7.514a5.306,5.306,0,0,1,1.545,3.729V31.491A5.259,5.259,0,0,1,29.429,36.744ZM8.571,3.756A2.756,2.756,0,0,0,5.819,6.508V31.491a2.757,2.757,0,0,0,2.752,2.753H29.429a2.757,2.757,0,0,0,2.752-2.753V14.04a2.785,2.785,0,0,0-.812-1.959L23.848,4.567a2.75,2.75,0,0,0-1.957-.811Z"/><path d="M32.32,13.72H27.665A5.24,5.24,0,0,1,22.43,8.485V2.51h2.5V8.485a2.738,2.738,0,0,0,2.735,2.735H32.32Z"/><path d="M13.831,24.655a.611.611,0,0,1-.282-.078c-.1-.052-.206-.11-.319-.174l-3.9-2.292a.615.615,0,0,1-.216-.246.7.7,0,0,1-.073-.306.727.727,0,0,1,.073-.318.539.539,0,0,1,.216-.235l3.9-2.243a1.869,1.869,0,0,1,.295-.15.711.711,0,0,1,.258-.054.609.609,0,0,1,.45.233.728.728,0,0,1,.21.487.463.463,0,0,1-.067.234.562.562,0,0,1-.2.2l-4.164,2.413-.084-1.2,4.236,2.533a.489.489,0,0,1,.2.21.59.59,0,0,1,.06.257.745.745,0,0,1-.2.511A.553.553,0,0,1,13.831,24.655Z"/><path d="M13.831,24.905a.84.84,0,0,1-.4-.108c-.1-.051-.21-.111-.326-.177L9.2,22.327a.871.871,0,0,1-.315-.355.947.947,0,0,1-.1-.413.99.99,0,0,1,.1-.426.778.778,0,0,1,.314-.341l3.9-2.246a2.024,2.024,0,0,1,.328-.166.826.826,0,0,1,.984.245.968.968,0,0,1,.275.654.714.714,0,0,1-.1.359.817.817,0,0,1-.281.283L11.484,21.56,14.3,23.24a.738.738,0,0,1,.3.317.841.841,0,0,1,.085.365,1,1,0,0,1-.261.677A.8.8,0,0,1,13.831,24.905Zm-3.655-2.587,3.181,1.869c.107.062.209.117.307.168a.3.3,0,0,0,.383-.089.493.493,0,0,0,.134-.344.347.347,0,0,0-.036-.15.25.25,0,0,0-.105-.1l-3.05-1.825Zm-.485-1.23-.236.135a.292.292,0,0,0-.115.126.482.482,0,0,0-.048.21.457.457,0,0,0,.048.2.361.361,0,0,0,.13.148l.291.17Zm.522.294.023.324.262-.153Zm-.011-.588.792.472,3.059-1.772a.31.31,0,0,0,.107-.106.217.217,0,0,0,.033-.109.479.479,0,0,0-.147-.319c-.135-.151-.232-.151-.263-.151a.484.484,0,0,0-.166.036,1.723,1.723,0,0,0-.255.131Z"/><path d="M16.65,26.263a.694.694,0,0,1-.42-.168.524.524,0,0,1-.215-.432.651.651,0,0,1,.071-.288L20.958,15.4a.679.679,0,0,1,.229-.264.532.532,0,0,1,.3-.1.677.677,0,0,1,.413.163.52.52,0,0,1,.21.438.654.654,0,0,1-.071.288L17.179,25.9a.7.7,0,0,1-.222.264A.525.525,0,0,1,16.65,26.263Z"/><path d="M16.65,26.513a.941.941,0,0,1-.572-.219.779.779,0,0,1-.313-.631.9.9,0,0,1,.1-.4l4.872-9.969a.921.921,0,0,1,.314-.363.824.824,0,0,1,1.005.075.779.779,0,0,1,.307.637.9.9,0,0,1-.1.4L17.4,26.012a.933.933,0,0,1-.3.361A.778.778,0,0,1,16.65,26.513Zm4.837-11.22a.28.28,0,0,0-.161.054.422.422,0,0,0-.144.167l-4.871,9.97a.4.4,0,0,0-.046.179.275.275,0,0,0,.119.235c.177.136.316.144.429.064a.436.436,0,0,0,.142-.17l4.859-9.97a.407.407,0,0,0,.046-.179.276.276,0,0,0-.112-.241A.451.451,0,0,0,21.487,15.293Z"/><path d="M24.318,24.655a.6.6,0,0,1-.449-.235.719.719,0,0,1-.21-.485.451.451,0,0,1,.066-.24.617.617,0,0,1,.2-.193l4.164-2.412.084,1.2-4.235-2.533a.486.486,0,0,1-.2-.21.59.59,0,0,1-.06-.257.728.728,0,0,1,.2-.51.564.564,0,0,1,.4-.222.606.606,0,0,1,.282.078q.149.078.318.174l3.9,2.292a.54.54,0,0,1,.216.233.74.74,0,0,1,0,.637.537.537,0,0,1-.216.234l-3.9,2.244c-.1.056-.2.1-.288.144A.634.634,0,0,1,24.318,24.655Z"/><path d="M24.318,24.905a.847.847,0,0,1-.636-.317.967.967,0,0,1-.273-.653.7.7,0,0,1,.1-.37.865.865,0,0,1,.276-.272l2.83-1.64-2.811-1.68a.723.723,0,0,1-.3-.317.841.841,0,0,1-.085-.365.979.979,0,0,1,.27-.679.746.746,0,0,1,.979-.195c.1.051.21.111.326.177l3.9,2.293a.785.785,0,0,1,.315.34,1,1,0,0,1,.1.428.984.984,0,0,1-.1.426.777.777,0,0,1-.317.342L25,24.668c-.115.062-.216.113-.309.155A.875.875,0,0,1,24.318,24.905Zm2.789-2.958-3.059,1.772a.361.361,0,0,0-.11.106.2.2,0,0,0-.029.11.476.476,0,0,0,.145.318c.136.152.233.152.264.152a.381.381,0,0,0,.161-.037c.083-.038.174-.083.272-.137L27.9,22.42Zm1.233-.807.07.986.236-.136a.278.278,0,0,0,.116-.126.488.488,0,0,0,0-.42.273.273,0,0,0-.116-.124Zm-.737.52.285.171-.023-.324ZM24.27,18.809a.373.373,0,0,0-.212.142.476.476,0,0,0-.138.34.347.347,0,0,0,.036.15.247.247,0,0,0,.1.1l3.051,1.825.813-.471-3.18-1.869c-.107-.062-.21-.117-.307-.168A.372.372,0,0,0,24.27,18.809Z"/></svg>