<svg id="Layer_1" data-name="Layer 1" xmlns="http://www.w3.org/2000/svg" viewBox="0 0 512 512"><title>reset-undo-arrow</title><path d="M433.05,127.87a233.52,233.52,0,0,0-101.4-69L459,32.56a5.16,5.16,0,0,0,4-6.11L458.4,4.12a5.18,5.18,0,0,0-6.12-4L268,38.21a5.17,5.17,0,0,0-3.93,6.48l51.38,181a5.17,5.17,0,0,0,6.38,3.57L343.78,223a5.18,5.18,0,0,0,3.57-6.39L310.49,86.92A199.84,199.84,0,0,1,455.75,279.13c0,110.15-89.61,199.75-199.75,199.75S56.25,389.28,56.25,279.13a199.38,199.38,0,0,1,47.54-129.35,5.16,5.16,0,0,0-.49-7.2l-17-15.19a5.18,5.18,0,0,0-7.39.49,232.87,232.87,0,1,0,354.11,0Z"/></svg>